<?xml version="1.0" encoding="UTF-8" standalone="no"?>
<!-- Uploaded to: SVG Repo, www.svgrepo.com, Generator: SVG Repo Mixer Tools -->

<svg
   fill="#000000"
   width="666.66669"
   height="666.66669"
   viewBox="0 0 20.000001 20.000001"
   version="1.1"
   id="svg1"
   sodipodi:docname="close-circle-svgrepo-com.svg"
   inkscape:version="1.3.2 (091e20e, 2023-11-25, custom)"
   xmlns:inkscape="http://www.inkscape.org/namespaces/inkscape"
   xmlns:sodipodi="http://sodipodi.sourceforge.net/DTD/sodipodi-0.dtd"
   xmlns="http://www.w3.org/2000/svg"
   xmlns:svg="http://www.w3.org/2000/svg">
  <defs
     id="defs1" />
  <sodipodi:namedview
     id="namedview1"
     pagecolor="#ffffff"
     bordercolor="#000000"
     borderopacity="0.25"
     inkscape:showpageshadow="2"
     inkscape:pageopacity="0.0"
     inkscape:pagecheckerboard="0"
     inkscape:deskcolor="#d1d1d1"
     inkscape:zoom="1.01625"
     inkscape:cx="333.08733"
     inkscape:cy="333.08733"
     inkscape:window-width="1920"
     inkscape:window-height="1009"
     inkscape:window-x="-8"
     inkscape:window-y="-8"
     inkscape:window-maximized="1"
     inkscape:current-layer="svg1" />
  <path
     d="M 10,0 A 10,10 0 1 0 20,10 10,10 0 0 0 10,0 Z m 3.707,12.293 a 1,1 0 1 1 -1.414,1.414 L 10,11.414 7.707,13.707 A 1,1 0 0 1 6.293,12.293 L 8.586,10 6.293,7.707 A 1,1 0 0 1 7.707,6.293 L 10,8.586 12.293,6.293 a 1,1 0 0 1 1.414,1.414 L 11.414,10 Z"
     id="path1" />
</svg>
